<svg width="22.000000" height="18.000000" viewBox="0 0 22 18" fill="none" xmlns="http://www.w3.org/2000/svg" xmlns:xlink="http://www.w3.org/1999/xlink">
	<desc>
			Created with Pixso.
	</desc>
	<defs/>
	<path id="Vector" d="M21 0C21.55 0 22 0.44 22 1L22 17C22 17.55 21.54 18 21 18L2.99 18C2.44 18 2 17.55 2 17L2 16L20 16L20 4.3L12 11.5L2 2.5L2 1C2 0.44 2.44 0 3 0L21 0ZM8 12L8 14L0 14L0 12L8 12ZM5 7L5 9L0 9L0 7L5 7ZM19.56 2L4.43 2L12 8.8L19.56 2Z" fill="#000000" fill-opacity="0.4" fill-rule="nonzero"/>
</svg>
