<svg width="16.000000" height="21.000000" viewBox="0 0 16 21" fill="none" xmlns="http://www.w3.org/2000/svg" xmlns:xlink="http://www.w3.org/1999/xlink">
	<desc>
			Created with Pixso.
	</desc>
	<defs/>
	<path id="Vector" d="M0 21C0 16.58 3.58 13 8 13C12.41 13 16 16.58 16 21L14 21C14 17.68 11.31 15 8 15C4.68 15 2 17.68 2 21L0 21ZM8 12C4.68 12 2 9.31 2 6C2 2.68 4.68 0 8 0C11.31 0 14 2.68 14 6C14 9.31 11.31 12 8 12ZM8 10C10.21 10 12 8.2 12 6C12 3.79 10.21 2 8 2C5.78 2 4 3.79 4 6C4 8.2 5.78 10 8 10Z" fill="#000000" fill-opacity="0.4" fill-rule="nonzero"/>
</svg>
