<svg width="18.718750" height="10.080078" viewBox="0 0 18.7188 10.0801" fill="none" xmlns="http://www.w3.org/2000/svg" xmlns:xlink="http://www.w3.org/1999/xlink">
	<desc>
			Created with Pixso.
	</desc>
	<defs/>
	<path id="Path" d="M18.27 0.69C18.41 0.3 18.27 0.01 17.66 0.01L15.62 0.01C15.1 0.01 14.86 0.26 14.73 0.53C14.73 0.53 13.67 2.83 12.21 4.32C11.73 4.75 11.51 4.89 11.26 4.89C11.12 4.89 10.94 4.75 10.94 4.35L10.94 0.68C10.94 0.21 10.78 0 10.34 0L7.13 0C6.82 0 6.62 0.21 6.62 0.43C6.62 0.87 7.35 0.98 7.43 2.24L7.43 4.96C7.43 5.56 7.31 5.66 7.05 5.66C6.36 5.66 4.67 3.35 3.66 0.71C3.46 0.19 3.27 0 2.75 0L0.69 0C0.09 0 0 0.25 0 0.52C0 1 0.69 3.44 3.23 6.67C4.91 8.87 7.31 10.06 9.47 10.06C10.78 10.06 10.94 9.79 10.94 9.34L10.94 7.67C10.94 7.13 11.06 7.04 11.47 7.04C11.77 7.04 12.31 7.19 13.52 8.25C14.9 9.5 15.14 10.08 15.91 10.08L17.96 10.08C18.55 10.08 18.83 9.81 18.67 9.29C18.49 8.77 17.82 8.01 16.95 7.12C16.47 6.61 15.76 6.06 15.54 5.79C15.24 5.43 15.32 5.29 15.54 4.96C15.52 4.96 18.02 1.77 18.27 0.69Z" fill="#FFFFFF" fill-opacity="0.800000" fill-rule="evenodd"/>
</svg>
