<svg width="10.652344" height="17.755371" viewBox="0 0 10.6523 17.7554" fill="none" xmlns="http://www.w3.org/2000/svg" xmlns:xlink="http://www.w3.org/1999/xlink">
	<desc>
			Created with Pixso.
	</desc>
	<defs/>
	<path id="Shape" d="M7.24 12.9L9.9 15.46C10.44 15.98 10.44 16.83 9.9 17.36C9.35 17.88 8.47 17.88 7.93 17.36L5.32 14.84L2.71 17.36C2.44 17.62 2.09 17.75 1.73 17.75C1.38 17.75 1.02 17.62 0.75 17.36C0.2 16.83 0.2 15.98 0.75 15.46L3.4 12.9C2.43 12.68 1.5 12.32 0.65 11.8C0 11.4 -0.2 10.57 0.21 9.94C0.62 9.32 1.48 9.13 2.13 9.52C4.07 10.7 6.57 10.7 8.52 9.52C9.17 9.13 10.03 9.32 10.43 9.94C10.84 10.57 10.65 11.4 10 11.8C9.14 12.32 8.21 12.68 7.24 12.9Z" fill="#FFFFFF" fill-opacity="0.800000" fill-rule="nonzero"/>
	<path id="Combined Shape" d="M0.568359 4.58203C0.568359 7.10815 2.69727 9.16284 5.31445 9.16284C7.93359 9.16284 10.0605 7.10815 10.0605 4.58203C10.0605 2.05518 7.93359 0 5.31445 0C2.69727 0 0.568359 2.05518 0.568359 4.58203ZM7.2793 4.58154C7.2793 3.5354 6.39844 2.68481 5.31445 2.68481C4.23242 2.68481 3.34961 3.5354 3.34961 4.58154C3.34961 5.62695 4.23242 6.47803 5.31445 6.47803C6.39844 6.47803 7.2793 5.62695 7.2793 4.58154Z" clip-rule="evenodd" fill="#FFFFFF" fill-opacity="0.800000" fill-rule="evenodd"/>
</svg>

