<svg width="15.359375" height="11.040039" viewBox="0 0 15.3594 11.04" fill="none" xmlns="http://www.w3.org/2000/svg" xmlns:xlink="http://www.w3.org/1999/xlink">
	<desc>
			Created with Pixso.
	</desc>
	<defs/>
	<path id="Subtract" d="M15.0391 1.72388C14.8633 1.04541 14.3418 0.510986 13.6816 0.32959C12.4824 0 7.67969 0 7.67969 0C7.67969 0 2.87695 0 1.67969 0.32959C1.01758 0.510986 0.498047 1.04541 0.320312 1.72388C0 2.95386 0 5.52002 0 5.52002C0 5.52002 0 8.08618 0.320312 9.31616C0.498047 9.99463 1.01758 10.5291 1.67969 10.7104C2.87695 11.04 7.67969 11.04 7.67969 11.04C7.67969 11.04 12.4824 11.04 13.6816 10.7104C14.3418 10.5291 14.8633 9.99463 15.0391 9.31616C15.3594 8.08618 15.3594 5.52002 15.3594 5.52002C15.3594 5.52002 15.3594 2.95386 15.0391 1.72388ZM6.24023 3.36035L6.24023 8.16016L10.0801 5.76025L6.24023 3.36035Z" clip-rule="evenodd" fill="#FFFFFF" fill-opacity="0.800000" fill-rule="evenodd"/>
</svg>

