<svg width="16.455078" height="13.627686" viewBox="0 0 16.4551 13.6277" fill="none" xmlns="http://www.w3.org/2000/svg" xmlns:xlink="http://www.w3.org/1999/xlink">
	<desc>
			Created with Pixso.
	</desc>
	<defs/>
	<path id="Shape" d="M0.24 6.33C1.93 5.41 3.81 4.63 5.56 3.86C8.58 2.58 11.61 1.33 14.68 0.16C15.27 -0.04 16.34 -0.23 16.45 0.65C16.39 1.9 16.16 3.15 15.99 4.39C15.58 7.12 15.11 9.85 14.64 12.57C14.48 13.48 13.34 13.95 12.62 13.37C10.87 12.19 9.11 11.02 7.38 9.81C6.82 9.23 7.34 8.41 7.85 8C9.29 6.58 10.81 5.38 12.18 3.88C12.55 2.99 11.46 3.74 11.1 3.97C9.13 5.33 7.21 6.77 5.13 7.97C4.07 8.55 2.83 8.05 1.77 7.73C0.82 7.33 -0.58 6.93 0.24 6.33L0.24 6.33Z" fill="#FFFFFF" fill-opacity="0.800000" fill-rule="nonzero"/>
</svg>
